# xmcd CD database file generated by OrangeCD 5.2
#
# Track frame offsets:
#	150
#	13942
#	31687
#	47020
#	60875
#	75455
#	87910
#	101165
#	114337
#	130227
#
# Disc length: 1995 seconds
#
# Revision: 5
# Processed by: cddbd v1.5.1PL0 Copyright (c) Steve Scherf et al.
# Submitted via: OrangeCD 5.2
#
DISCID=6f07c90a
DTITLE=Doug Stone - More Love
DYEAR=1993
DGENRE=Country
TTITLE0=Addicted To A Dollar
TTITLE1=She Used To Love Me A Lot
TTITLE2=More Love
TTITLE3=Little Sister's Blue Jeans
TTITLE4=Small Steps
TTITLE5=Wishbone
TTITLE6=That's A Lie
TTITLE7=Love, You Took Me By Surprise
TTITLE8=I Never Knew Love
TTITLE9=Dream High
EXTD=
EXTT0=
EXTT1=
EXTT2=
EXTT3=
EXTT4=
EXTT5=
EXTT6=
EXTT7=
EXTT8=
EXTT9=
PLAYORDER=
